<?xml version="1.0" encoding="UTF-8"?>
<svg id="Artwork" xmlns="http://www.w3.org/2000/svg" viewBox="0 0 162.93 162.93">
  <defs>
    <style>
      .cls-1 {
        fill: #0a0a0a;
      }
    </style>
  </defs>
  <path class="cls-1" d="m117.67,83.64c-3.56-2.54-7.51-4.75-11.84-6.62-1.93-.86-3.26-1.98-4.01-3.37-.75-1.39-.94-3.13-.56-5.22,1.07-5.56,1.34-10.9.8-16.01-.54-5.11-2.46-8.25-5.78-9.43l-2.09-.8c-3.8-1.39-7.57-.6-11.32,2.37-3.75,2.97-7.09,6.89-10.03,11.76-1.99,3.29-3.76,6.57-5.33,9.86-1.59-.26-3.08-.47-4.46-.63-6.31-.69-11.33-.65-15.05.12-3.72.78-5.85,2.15-6.38,4.13l-.72,2.57c-.59,2.03.4,4.27,2.97,6.7,2.57,2.44,5.32,4.54,8.27,6.3,2.46,1.5,4.19,3.25,5.18,5.26.99,2.01,1.35,4.54,1.08,7.59-.43,4.98-.12,9.62.92,13.93,1.04,4.31,3.28,7.02,6.7,8.15l2.17.72c2.89.96,5.91.19,9.07-2.33,3.16-2.52,6.29-6.31,9.39-11.4,1.63-2.55,3.26-5.55,4.87-8.99,2.34.33,4.64.57,6.89.72,6.45.43,11.73.19,15.85-.72,4.12-.91,6.45-2.35,6.98-4.33l.8-2.89c.64-2.41-.82-4.88-4.37-7.42Zm-35.92-27.41c3.37-5.51,7.04-8.7,11-9.55,2.19,1.23,3.5,3.72,3.93,7.46.43,3.75.37,7.63-.16,11.64-.32,2.3-1.22,3.88-2.69,4.74-1.47.86-3.36.96-5.66.32-4.2-1.18-8.36-2.21-12.48-3.1,1.84-4.06,3.86-7.9,6.06-11.51Zm-2.01,31.39c-3.37-.91-5.67-2.53-6.9-4.86-1.23-2.33-1.2-5.12.08-8.39.26-.67.52-1.33.78-1.98,4.5.93,9.06,2.07,13.67,3.43,2.14.64,3.6,1.71,4.37,3.21.77,1.5.79,3.32.04,5.46-.65,1.87-1.34,3.69-2.07,5.48-3.34-.67-6.66-1.45-9.97-2.35Zm-20.23-9.83c-2.46,1.1-5.14.66-8.03-1.32-2.14-1.44-3.83-2.92-5.06-4.41,3.48-1.44,8.51-1.93,15.09-1.44,1.19.08,2.47.2,3.83.37-1.44,3.45-3.39,5.72-5.84,6.81Zm23.2,26.13c-2.36,3.91-4.76,6.96-7.22,9.15-2.46,2.19-4.71,3.29-6.74,3.29-1.55-1.93-2.52-4.2-2.89-6.82-.38-2.62-.4-5.48-.08-8.59.27-2.68,1.48-4.47,3.65-5.38,2.17-.91,5.02-.91,8.55,0,2.83.74,5.6,1.36,8.32,1.88-1.21,2.4-2.4,4.56-3.58,6.47Zm17.46-12.2c-1.82-.24-3.64-.52-5.45-.82.59-1.47,1.17-2.96,1.72-4.48.8-2.19,1.97-3.65,3.49-4.37,1.53-.72,3.33-.57,5.42.44,6.47,3.05,10.3,5.91,11.48,8.59-4.23,1.34-9.78,1.55-16.66.64Z"/>
</svg>